/* XPM */
static char * maximize_active_xpm[] = {
"20 24 35 1",
" 	c None",
".	c #616161",
"+	c #D0D0D0",
"@	c #BEBEBE",
"#	c #B0B0B0",
"$	c #ADADAD",
"%	c #BDBDBD",
"&	c #AEAEAE",
"*	c #A0A0A0",
"=	c #696969",
"-	c #9E9E9E",
";	c #B4B4B4",
">	c #A9A9A9",
",	c #C2C2C2",
"'	c #C0C0C0",
")	c #ABABAB",
"!	c #7B7B7B",
"~	c #ACACAC",
"{	c #FFFFFF",
"]	c #BBBBBB",
"^	c #BABABA",
"/	c #AFAFAF",
"(	c #B8B8B8",
"_	c #B2B2B2",
":	c #B3B3B3",
"<	c #AAAAAA",
"[	c #B5B5B5",
"}	c #B6B6B6",
"|	c #A6A6A6",
"1	c #B7B7B7",
"2	c #A5A5A5",
"3	c #949494",
"4	c #A2A2A2",
"5	c #A8A8A8",
"6	c #A7A7A7",
"....................",
"++++++++++++++++++++",
"@@#$$$$$$$$$$$$$$#@@",
"%&*==============*&%",
"&-=;++++++++++++;=-&",
">=#,,,,,,,,,,,,,,-=>",
">=,''''''''''''''#=>",
")=,@@!!!!!!!!!!@@#=)",
"~=,%%!{{{{{{{{!%%#=~",
"$=,]]!{{{{{{{{!]]#=$",
"&=,^^!{!!!!!!{!^^#=&",
"/=,((!{!((((!{!((#=/",
"#=,##!{!####!{!###=#",
"_=,$$!{!$$$$!{!$$#=_",
":=,~~!{!!!!!!{!~~#=:",
";=,<<!{{{{{{{{!<<#=;",
"[=,>>!!!!!!!!!!>>#=[",
"}=,||||||||||||||#=}",
"1=#22222222222222-=1",
"_[=34444444444443=[_",
"5#;==============;#5",
"66[]]]]]]]]]]]]]][66",
"||||||||||||||||||||",
"!!!!!!!!!!!!!!!!!!!!"};
