/* XPM */
static char * maximize_toggled_pressed_xpm[] = {
"20 24 43 1",
" 	c None",
".	c #616161",
"+	c #BEBEBE",
"@	c #BDBDBD",
"#	c #BCBCBC",
"$	c #BBBBBB",
"%	c #9E9E9E",
"&	c #D3D3D3",
"*	c #BABABA",
"=	c #959595",
"-	c #A7A7A7",
";	c #B9B9B9",
">	c #A6A6A6",
",	c #D0D0D0",
"'	c #B8B8B8",
")	c #CECECE",
"!	c #B7B7B7",
"~	c #A5A5A5",
"{	c #7B7B7B",
"]	c #CBCBCB",
"^	c #B6B6B6",
"/	c #A4A4A4",
"(	c #ECECEC",
"_	c #C9C9C9",
":	c #B5B5B5",
"<	c #C6C6C6",
"[	c #B4B4B4",
"}	c #A3A3A3",
"|	c #C4C4C4",
"1	c #B0B0B0",
"2	c #A2A2A2",
"3	c #C1C1C1",
"4	c #AEAEAE",
"5	c #BFBFBF",
"6	c #ADADAD",
"7	c #A1A1A1",
"8	c #ACACAC",
"9	c #A0A0A0",
"0	c #ABABAB",
"a	c #9F9F9F",
"b	c #A9A9A9",
"c	c #B2B2B2",
"d	c #A8A8A8",
"....................",
"++++++++++++++++++++",
"@@@@@@@@@@@@@@@@@@@@",
"###..............###",
"$$.%%%%%%%%%%%%%%.&$",
"*.=---------------.&",
";.=>>>>>>>>>>>>>>>.,",
"'.=>>>>>>>>>>>>>>>.)",
"!.=~~~{{{{{{{{~~~~.]",
"^.=///{(((((({////._",
":.=///{(((((({////.<",
"[.=}}}{({{{{({}}}}.|",
"1.=222{({22{({2222.3",
"4.=222{({{{{({2222.5",
"6.=777{(((((({7777.#",
"8.=777{{{{{{{{7777.*",
"8.=999999999999999.!",
"0.=aaaaaaaaaaaaaaa.:",
"b.=%%%%%%%%%%%%%%%.c",
"dd.%%%%%%%%%%%%%%.cd",
"dd1..............1dd",
"---11111111111111---",
">>>>>>>>>>>>>>>>>>>>",
"{{{{{{{{{{{{{{{{{{{{"};
