/* XPM */
static char * top_right_active_xpm[] = {
"5 24 23 1",
" 	c None",
".	c #818181",
"+	c #696969",
"@	c #CCCCCC",
"#	c #BDBDBD",
"$	c #ADADAD",
"%	c #BCBCBC",
"&	c #BABABA",
"*	c #A7A7A7",
"=	c #616161",
"-	c #B9B9B9",
";	c #B7B7B7",
">	c #B5B5B5",
",	c #B4B4B4",
"'	c #B0B0B0",
")	c #AEAEAE",
"!	c #ACACAC",
"~	c #ABABAB",
"{	c #A9A9A9",
"]	c #A8A8A8",
"^	c #A6A6A6",
"/	c #7B7B7B",
"(	c #6B6B6B",
"     ",
".+   ",
"@@+  ",
"##$+ ",
"%%$. ",
"&&&*=",
"&&&*=",
"---*=",
";;;*=",
";;;*=",
">>>*=",
",,,*=",
"'''*=",
")))*=",
"$$$*=",
"!!!*=",
"!!!*=",
"~~~*=",
"{{{*=",
"]]]*=",
"]]]*=",
"****=",
"^^^*=",
"////("};
