/* XPM */
static char * top_left_active_xpm[] = {
"5 24 24 1",
" 	c None",
".	c #696969",
"+	c #818181",
"@	c #D0D0D0",
"#	c #BDBDBD",
"$	c #BCBCBC",
"%	c #616161",
"&	c #C2C2C2",
"*	c #BABABA",
"=	c #B9B9B9",
"-	c #B7B7B7",
";	c #B5B5B5",
">	c #B4B4B4",
",	c #B0B0B0",
"'	c #AEAEAE",
")	c #ADADAD",
"!	c #ACACAC",
"~	c #ABABAB",
"{	c #A9A9A9",
"]	c #A8A8A8",
"^	c #A7A7A7",
"/	c #A6A6A6",
"(	c #6B6B6B",
"_	c #7B7B7B",
"     ",
"   .+",
"  .@@",
" .@##",
" +@$$",
"%&***",
"%&***",
"%&===",
"%&---",
"%&---",
"%&;;;",
"%&>>>",
"%&,,,",
"%&'''",
"%&)))",
"%&!!!",
"%&!!!",
"%&~~~",
"%&{{{",
"%&]]]",
"%&]]]",
"%&^^^",
"%&///",
"(____"};
