/* XPM */
static char * close_pressed_xpm[] = {
"20 24 51 1",
" 	c None",
".	c #616161",
"+	c #D0D0D0",
"@	c #BEBEBE",
"#	c #BDBDBD",
"$	c #BCBCBC",
"%	c #9E9E9E",
"&	c #D3D3D3",
"*	c #BABABA",
"=	c #959595",
"-	c #A7A7A7",
";	c #A6A6A6",
">	c #B9B9B9",
",	c #7B7B7B",
"'	c #7F7F7F",
")	c #979797",
"!	c #C6C6C6",
"~	c #CECECE",
"{	c #B7B7B7",
"]	c #A5A5A5",
"^	c #DEDEDE",
"/	c #848484",
"(	c #E8E8E8",
"_	c #CBCBCB",
":	c #A4A4A4",
"<	c #818181",
"[	c #ECECEC",
"}	c #C9C9C9",
"|	c #B5B5B5",
"1	c #969696",
"2	c #B4B4B4",
"3	c #A3A3A3",
"4	c #C4C4C4",
"5	c #B0B0B0",
"6	c #A2A2A2",
"7	c #C1C1C1",
"8	c #AEAEAE",
"9	c #949494",
"0	c #BFBFBF",
"a	c #ADADAD",
"b	c #A1A1A1",
"c	c #ACACAC",
"d	c #D2D2D2",
"e	c #A0A0A0",
"f	c #939393",
"g	c #C3C3C3",
"h	c #ABABAB",
"i	c #9F9F9F",
"j	c #A9A9A9",
"k	c #B2B2B2",
"l	c #A8A8A8",
"....................",
"++++++++++++++++++++",
"@@@@@@@@@@@@@@@@@@@@",
"###..............###",
"$$.%%%%%%%%%%%%%%.&$",
"*.=---------------.&",
"*.=;;;;;;;;;;;;;;;.+",
">.=;;;,');;)')!;;;.~",
"{.=]],&^/))/^()]]]._",
"{.=::<^[^//^[^<:::.}",
"|.=::1/^[^^[^/1:::.!",
"2.=3331/^[[^/13333.4",
"5.=666=/^[[^/=6666.7",
"8.=669/^[^^[^/9666.0",
"a.=bb<^[^//^[^<bbb.$",
"c.=bb,d^/99/^()bbb.*",
"c.=eee,'feef')geee.{",
"h.=iiiiiiiiiiiiiii.|",
"j.=%%%%%%%%%%%%%%%.k",
"ll.%%%%%%%%%%%%%%.kl",
"ll5..............5ll",
"---55555555555555---",
";;;;;;;;;;;;;;;;;;;;",
",,,,,,,,,,,,,,,,,,,,"};
