/* XPM */
static char *dummy[]={
"20 24 39 1",
"G c #394248",
"J c #384248",
". c #384248",
"K c #394349",
"# c #696969",
"h c #7b7b7b",
"i c #7f7f7f",
"s c #818181",
"t c #848484",
"o c #858585",
"H c #949494",
"k c #979797",
"E c #999999",
"C c #9a9a9a",
"z c #9c9c9c",
"e c #9e9e9e",
"I c #a2a2a2",
"x c #a4a4a4",
"v c #a5a5a5",
"p c #a6a6a6",
"j c #a8a8a8",
"D c #a9a9a9",
"B c #aaaaaa",
"A c #acacac",
"y c #adadad",
"c c #b0b0b0",
"a c #b4b4b4",
"w c #b8b8b8",
"u c #bababa",
"r c #bbbbbb",
"m c #bdbdbd",
"g c #bebebe",
"f c #c0c0c0",
"d c #c2c2c2",
"F c #c8c8c8",
"b c #d0d0d0",
"l c #d3d3d3",
"q c #fefefe",
"n c #ffffff",
"....................",
"....................",
"....................",
"...##############...",
"..#abbbbbbbbbbbba#..",
".#cdddddddddddddde#.",
".#dffffffffffffffc#.",
".#dggghijggjiklggc#.",
".#dmmhnnoppoqnkmmc#.",
".#drrsnnqttqnqsrrc#.",
".#duuvoqnqqnqovuuc#.",
".#dwwwxtqnnqtxwwwc#.",
".#dcccetqnnqtecccc#.",
".#dyyzoqnqqnqozyyc#.",
".#dAAsnnqttqnqsAAc#.",
".#dBBhnnoCCoqnkBBc#.",
".#dDDDhiEDDEikFDDc#.",
".#dppppppppppppppc#.",
".#cvvvvvvvvvvvvvve#.",
"G.#HIIIIIIIIIIIIH#.G",
".JG##############GJ.",
"....................",
"KKKKKKKKKKKKKKKKKKKK",
"...................."};
