/* XPM */
static char * maximize_toggled_active_xpm[] = {
"20 24 36 1",
" 	c None",
".	c #616161",
"+	c #BEBEBE",
"@	c #BDBDBD",
"#	c #B0B0B0",
"$	c #ADADAD",
"%	c #BCBCBC",
"&	c #AEAEAE",
"*	c #A0A0A0",
"=	c #696969",
"-	c #9E9E9E",
";	c #B4B4B4",
">	c #D0D0D0",
",	c #A9A9A9",
"'	c #C2C2C2",
")	c #C0C0C0",
"!	c #ABABAB",
"~	c #ACACAC",
"{	c #7B7B7B",
"]	c #BBBBBB",
"^	c #FFFFFF",
"/	c #BABABA",
"(	c #AFAFAF",
"_	c #B8B8B8",
":	c #B2B2B2",
"<	c #B3B3B3",
"[	c #AAAAAA",
"}	c #B5B5B5",
"|	c #B6B6B6",
"1	c #A6A6A6",
"2	c #B7B7B7",
"3	c #A5A5A5",
"4	c #949494",
"5	c #A2A2A2",
"6	c #A8A8A8",
"7	c #A7A7A7",
"....................",
"++++++++++++++++++++",
"@@#$$$$$$$$$$$$$$#@@",
"%&*==============*&%",
"&-=;>>>>>>>>>>>>;=-&",
",=#''''''''''''''-=,",
",='))))))))))))))#=,",
"!='++++++++++++++#=!",
"~='@@@{{{{{{{{@@@#=~",
"$=']]]{^^^^^^{]]]#=$",
"&='///{^^^^^^{///#=&",
"(='___{^{{{{^{___#=(",
"#='###{^{##{^{####=#",
":='$$${^{{{{^{$$$#=:",
"<='~~~{^^^^^^{~~~#=<",
";='[[[{{{{{{{{[[[#=;",
"}=',,,,,,,,,,,,,,#=}",
"|='11111111111111#=|",
"2=#33333333333333-=2",
":}=45555555555554=}:",
"6#;==============;#6",
"77}]]]]]]]]]]]]]]}77",
"11111111111111111111",
"{{{{{{{{{{{{{{{{{{{{"};
