/* XPM */
static char * hide_pressed_xpm[] = {
"20 24 40 1",
" 	c None",
".	c #616161",
"+	c #D0D0D0",
"@	c #BEBEBE",
"#	c #BDBDBD",
"$	c #BCBCBC",
"%	c #9E9E9E",
"&	c #D3D3D3",
"*	c #BABABA",
"=	c #959595",
"-	c #A7A7A7",
";	c #A6A6A6",
">	c #B9B9B9",
",	c #CECECE",
"'	c #B7B7B7",
")	c #A5A5A5",
"!	c #CBCBCB",
"~	c #A4A4A4",
"{	c #C9C9C9",
"]	c #B5B5B5",
"^	c #C6C6C6",
"/	c #B4B4B4",
"(	c #A3A3A3",
"_	c #C4C4C4",
":	c #B0B0B0",
"<	c #A2A2A2",
"[	c #C1C1C1",
"}	c #AEAEAE",
"|	c #7B7B7B",
"1	c #BFBFBF",
"2	c #ADADAD",
"3	c #A1A1A1",
"4	c #ECECEC",
"5	c #ACACAC",
"6	c #A0A0A0",
"7	c #ABABAB",
"8	c #9F9F9F",
"9	c #A9A9A9",
"0	c #B2B2B2",
"a	c #A8A8A8",
"....................",
"++++++++++++++++++++",
"@@@@@@@@@@@@@@@@@@@@",
"###..............###",
"$$.%%%%%%%%%%%%%%.&$",
"*.=---------------.&",
"*.=;;;;;;;;;;;;;;;.+",
">.=;;;;;;;;;;;;;;;.,",
"'.=))))))))))))))).!",
"'.=~~~~~~~~~~~~~~~.{",
"].=~~~~~~~~~~~~~~~.^",
"/.=(((((((((((((((._",
":.=<<<<<<<<<<<<<<<.[",
"}.=<<||||||||||<<<.1",
"2.=33|44444444|333.$",
"5.=33|44444444|333.*",
"5.=66||||||||||666.'",
"7.=888888888888888.]",
"9.=%%%%%%%%%%%%%%%.0",
"aa.%%%%%%%%%%%%%%.0a",
"aa:..............:aa",
"---::::::::::::::---",
";;;;;;;;;;;;;;;;;;;;",
"||||||||||||||||||||"};
