/* XPM */
static char *dummy[]={
"20 24 27 1",
"e c #3c464c",
"j c #3d464c",
". c #384248",
"# c #394349",
"b c #3a444a",
"l c #3b444a",
"a c #3b454a",
"x c #3d464c",
"h c #4d555a",
"y c #6c7174",
"w c #86898b",
"v c #878a8b",
"u c #a9a9a9",
"t c #aaaaaa",
"r c #acacac",
"q c #adadad",
"f c #b0b0b0",
"c c #b4b4b4",
"p c #b8b8b8",
"o c #bababa",
"n c #bbbbbb",
"m c #bdbdbd",
"k c #bebebe",
"i c #c0c0c0",
"g c #c2c2c2",
"d c #d0d0d0",
"s c #ffffff",
"....................",
"....................",
"..#aaaaaaaaaaaaaa#..",
".ab..............ba.",
"ab.cddddddddddddc.ba",
"e.fggggggggggggggh.e",
"e.giiiiiiiiiiiiiif.e",
"j.gkkkkkkkkkkkkkkf.j",
"l.gmmmmmmmmmmmmmmf.l",
"a.gnnnnnnnnnnnnnnf.a",
"a.goooooooooooooof.a",
"#.gppppppppppppppf.#",
"#.gfffffffffffffff.#",
"..gqq..........qqf..",
"..grr.ssssssss.rrf..",
"..gtt.ssssssss.ttf..",
"..guu..........uuf..",
"..gvvvvvvvvvvvvvvf..",
"..fwwwwwwwwwwwwwwh..",
"...xyyyyyyyyyyyyx...",
".#................#.",
"....................",
"....................",
"...................."};
