/* XPM */
static char *dummy[]={
"20 24 25 1",
". c #384248",
"w c #3f484d",
"# c #414a50",
"a c #696969",
"i c #7b7b7b",
"u c #949494",
"f c #9e9e9e",
"v c #a2a2a2",
"t c #a5a5a5",
"s c #a6a6a6",
"r c #a9a9a9",
"q c #aaaaaa",
"p c #acacac",
"o c #adadad",
"d c #b0b0b0",
"b c #b4b4b4",
"n c #b8b8b8",
"m c #bababa",
"l c #bbbbbb",
"j c #bdbdbd",
"h c #bebebe",
"g c #c0c0c0",
"e c #c2c2c2",
"c c #d0d0d0",
"k c #ffffff",
"....................",
"####################",
"....................",
"...aaaaaaaaaaaaaa...",
"..abccccccccccccba..",
".adeeeeeeeeeeeeeefa.",
".aeggggggggggggggda.",
".aehhiiiiiiiiiihhda.",
".aejjikkkkkkkkijjda.",
".aellikkkkkkkkillda.",
".aemmikiiiiiikimmda.",
".aennikinnnnikinnda.",
".aeddikiddddikiddda.",
".aeooikiooooikiooda.",
".aeppikiiiiiikippda.",
".aeqqikkkkkkkkiqqda.",
".aerriiiiiiiiiirrda.",
".aessssssssssssssda.",
".adttttttttttttttfa.",
"..auvvvvvvvvvvvvua..",
"...aaaaaaaaaaaaaa...",
"....................",
"....................",
"wwwwwwwwwwwwwwwwwwww"};
