/* XPM */
static char *dummy[]={
"20 24 13 1",
"i c #384248",
"j c #3a4449",
"h c #3a444a",
"g c #3b454b",
"f c #3d474c",
"e c #3e484e",
"d c #3f484e",
"c c #404a4f",
"b c #424c51",
"a c #434c51",
". c #474d51",
"k c #474f54",
"# c #51595e",
"....................",
"####################",
"aaaaaaaaaaaaaaaaaaaa",
"bbbbbbbbbbbbbbbbbbbb",
"cccccccccccccccccccc",
"cccccccccccccccccccc",
"cccccccccccccccccccc",
"dddddddddddddddddddd",
"eeeeeeeeeeeeeeeeeeee",
"eeeeeeeeeeeeeeeeeeee",
"ffffffffffffffffffff",
"gggggggggggggggggggg",
"hhhhhhhhhhhhhhhhhhhh",
"iiiiiiiiiiiiiiiiiiii",
"iiiiiiiiiiiiiiiiiiii",
"iiiiiiiiiiiiiiiiiiii",
"iiiiiiiiiiiiiiiiiiii",
"iiiiiiiiiiiiiiiiiiii",
"hhhhhhhhhhhhhhhhhhhh",
"hhhhhhhhhhhhhhhhhhhh",
"hhhhhhhhhhhhhhhhhhhh",
"jjjjjjjjjjjjjjjjjjjj",
"gggggggggggggggggggg",
"kkkkkkkkkkkkkkkkkkkk"};
