/* XPM */
static char *dummy[]={
"5 24 13 1",
"i c #384248",
"j c #3a4449",
"h c #3a444a",
"g c #3d464c",
"f c #3d474c",
"e c #3e484e",
"d c #40494f",
"c c #404a4f",
"b c #424c51",
"a c #434c51",
". c #464d51",
"k c #474f54",
"# c #51595e",
".....",
"#####",
"aaaaa",
"bbbbb",
"bbbbb",
"ccccc",
"ccccc",
"ddddd",
"eeeee",
"eeeee",
"fffff",
"ggggg",
"hhhhh",
"hhhhh",
"iiiii",
"iiiii",
"iiiii",
"iiiii",
"iiiii",
"hhhhh",
"hhhhh",
"jjjjj",
"jjjjj",
"kkkkk"};
