/* XPM */
static char *dummy[]={
"5 24 12 1",
"h c #384248",
"i c #3a4449",
"g c #3a444a",
"f c #3b454b",
"e c #3e484e",
"d c #40494f",
"c c #424b51",
"b c #444d52",
"a c #444d53",
". c #464d51",
"j c #464e53",
"# c #535b60",
".....",
"#####",
"aaaaa",
"aaaaa",
"bbbbb",
"ccccc",
"ccccc",
"ddddd",
"ddddd",
"ddddd",
"eeeee",
"eeeee",
"fffff",
"ggggg",
"ggggg",
"ggggg",
"ggggg",
"hhhhh",
"hhhhh",
"hhhhh",
"hhhhh",
"hhhhh",
"iiiii",
"jjjjj"};
