/* XPM */
static char *dummy[]={
"5 24 12 1",
"i c #384248",
"h c #3a444a",
"g c #3b454b",
"f c #3e484e",
"e c #40494f",
"d c #424b51",
"c c #444d52",
"b c #444d53",
". c #464d51",
"j c #464e53",
"a c #464f54",
"# c #535b60",
".....",
"#####",
"aaaaa",
"bbbbb",
"ccccc",
"ddddd",
"ddddd",
"ddddd",
"eeeee",
"eeeee",
"fffff",
"fffff",
"ggggg",
"ggggg",
"hhhhh",
"hhhhh",
"hhhhh",
"hhhhh",
"iiiii",
"iiiii",
"iiiii",
"iiiii",
"iiiii",
"jjjjj"};
