/* XPM */
static char *dummy[]={
"5 24 13 1",
"i c #384248",
"j c #3a4449",
"h c #3a444a",
"g c #3b454b",
"f c #3d474c",
"e c #3e484e",
"d c #3f484e",
"c c #404a4f",
"b c #424c51",
"a c #434c51",
". c #474d51",
"k c #474f54",
"# c #51595e",
".....",
"#####",
"aaaaa",
"bbbbb",
"ccccc",
"ccccc",
"ccccc",
"ddddd",
"eeeee",
"eeeee",
"fffff",
"ggggg",
"hhhhh",
"iiiii",
"iiiii",
"iiiii",
"iiiii",
"iiiii",
"hhhhh",
"hhhhh",
"hhhhh",
"jjjjj",
"ggggg",
"kkkkk"};
