/* XPM */
static char *dummy[]={
"5 24 14 1",
". c None",
"g c #384248",
"d c #3a444a",
"k c #3b454b",
"j c #3e484e",
"i c #40494f",
"f c #424b51",
"e c #444d52",
"c c #444d53",
"# c #454d52",
"h c #464d51",
"l c #464e53",
"a c #474e52",
"b c #50595e",
".....",
"#a...",
"bba..",
"ccda.",
"eed#.",
"fffgh",
"fffgh",
"fffgh",
"iiigh",
"iiigh",
"jjjgh",
"jjjgh",
"kkkgh",
"kkkgh",
"dddgh",
"dddgh",
"dddgh",
"dddgh",
"ggggh",
"ggggh",
"ggggh",
"ggggh",
"ggggh",
"lllla"};
