/* XPM */
static char *dummy[]={
"5 24 17 1",
". c None",
"l c #384248",
"m c #3a4449",
"k c #3a444a",
"j c #3b454b",
"i c #3d474c",
"h c #3e484e",
"g c #3f484e",
"d c #404a4f",
"c c #424c51",
"f c #464f54",
"e c #474d51",
"# c #474e52",
"a c #474f53",
"o c #474f54",
"n c #484f53",
"b c #51595e",
".....",
"...#a",
"..#bb",
".#bcc",
".abdd",
"efddd",
"efddd",
"efggg",
"efhhh",
"efhhh",
"efiii",
"efjjj",
"efkkk",
"eflll",
"eflll",
"eflll",
"eflll",
"eflll",
"efkkk",
"efkkk",
"efkkk",
"efmmm",
"efjjj",
"noooo"};
